<mxfile host="Electron" agent="Mozilla/5.0 (Windows NT 10.0; Win64; x64) AppleWebKit/537.36 (KHTML, like Gecko) draw.io/26.0.16 Chrome/132.0.6834.196 Electron/34.2.0 Safari/537.36" version="26.0.16">
  <diagram name="Page-1" id="7fbBcOqx8Q6LgBPxyjQF">
    <mxGraphModel dx="1167" dy="690" grid="1" gridSize="10" guides="1" tooltips="1" connect="1" arrows="1" fold="1" page="1" pageScale="1" pageWidth="850" pageHeight="1100" math="0" shadow="0">
      <root>
        <mxCell id="0" />
        <mxCell id="1" parent="0" />
        <mxCell id="ENB5yflXcwBVVpgjMPXa-2" value="&lt;font style=&quot;font-size: 24px;&quot;&gt;&lt;b&gt;Data Flow Diagram&lt;/b&gt;&amp;nbsp;&lt;/font&gt;" style="text;html=1;align=center;verticalAlign=middle;whiteSpace=wrap;rounded=0;" vertex="1" parent="1">
          <mxGeometry x="40" y="10" width="390" height="30" as="geometry" />
        </mxCell>
        <mxCell id="ENB5yflXcwBVVpgjMPXa-66" value="" style="group" vertex="1" connectable="0" parent="1">
          <mxGeometry x="80" y="160" width="840" height="370" as="geometry" />
        </mxCell>
        <mxCell id="ENB5yflXcwBVVpgjMPXa-1" value="" style="rounded=0;whiteSpace=wrap;html=1;fillColor=none;dashed=1;" vertex="1" parent="ENB5yflXcwBVVpgjMPXa-66">
          <mxGeometry y="40" width="160" height="330" as="geometry" />
        </mxCell>
        <mxCell id="ENB5yflXcwBVVpgjMPXa-3" value="&lt;b&gt;Source System&lt;/b&gt;" style="text;html=1;align=center;verticalAlign=middle;whiteSpace=wrap;rounded=0;" vertex="1" parent="ENB5yflXcwBVVpgjMPXa-66">
          <mxGeometry x="30" y="10" width="110" height="30" as="geometry" />
        </mxCell>
        <mxCell id="ENB5yflXcwBVVpgjMPXa-4" value="" style="image;aspect=fixed;html=1;points=[];align=center;fontSize=12;image=img/lib/azure2/general/Folder_Blank.svg;" vertex="1" parent="ENB5yflXcwBVVpgjMPXa-66">
          <mxGeometry x="45.5" y="100" width="69" height="56.00000000000001" as="geometry" />
        </mxCell>
        <mxCell id="ENB5yflXcwBVVpgjMPXa-5" value="" style="image;aspect=fixed;html=1;points=[];align=center;fontSize=12;image=img/lib/azure2/general/Folder_Blank.svg;" vertex="1" parent="ENB5yflXcwBVVpgjMPXa-66">
          <mxGeometry x="45.5" y="230" width="69" height="56.00000000000001" as="geometry" />
        </mxCell>
        <mxCell id="ENB5yflXcwBVVpgjMPXa-6" value="&lt;b&gt;ERP&lt;/b&gt;" style="text;html=1;align=center;verticalAlign=middle;whiteSpace=wrap;rounded=0;" vertex="1" parent="ENB5yflXcwBVVpgjMPXa-66">
          <mxGeometry x="50" y="286" width="60" height="30" as="geometry" />
        </mxCell>
        <mxCell id="ENB5yflXcwBVVpgjMPXa-7" value="&lt;b&gt;CRM&lt;/b&gt;" style="text;html=1;align=center;verticalAlign=middle;whiteSpace=wrap;rounded=0;" vertex="1" parent="ENB5yflXcwBVVpgjMPXa-66">
          <mxGeometry x="50" y="156" width="60" height="30" as="geometry" />
        </mxCell>
        <mxCell id="ENB5yflXcwBVVpgjMPXa-10" value="" style="group" vertex="1" connectable="0" parent="ENB5yflXcwBVVpgjMPXa-66">
          <mxGeometry x="240" width="170" height="370" as="geometry" />
        </mxCell>
        <mxCell id="ENB5yflXcwBVVpgjMPXa-8" value="" style="rounded=0;whiteSpace=wrap;html=1;fillColor=none;" vertex="1" parent="ENB5yflXcwBVVpgjMPXa-10">
          <mxGeometry y="40" width="170" height="330" as="geometry" />
        </mxCell>
        <mxCell id="ENB5yflXcwBVVpgjMPXa-9" value="&lt;b&gt;Bronze Layer&lt;/b&gt;" style="rounded=1;whiteSpace=wrap;html=1;fillColor=#ffe6cc;strokeColor=#d79b00;" vertex="1" parent="ENB5yflXcwBVVpgjMPXa-10">
          <mxGeometry width="170" height="30" as="geometry" />
        </mxCell>
        <mxCell id="ENB5yflXcwBVVpgjMPXa-17" value="crm_sales_details" style="rounded=1;whiteSpace=wrap;html=1;fillColor=#ffe6cc;strokeColor=#d79b00;" vertex="1" parent="ENB5yflXcwBVVpgjMPXa-10">
          <mxGeometry x="25" y="60" width="120" height="30" as="geometry" />
        </mxCell>
        <mxCell id="ENB5yflXcwBVVpgjMPXa-18" value="crm_cust_info&lt;span style=&quot;color: rgba(0, 0, 0, 0); font-family: monospace; font-size: 0px; text-align: start; text-wrap-mode: nowrap;&quot;&gt;%3CmxGraphModel%3E%3Croot%3E%3CmxCell%20id%3D%220%22%2F%3E%3CmxCell%20id%3D%221%22%20parent%3D%220%22%2F%3E%3CmxCell%20id%3D%222%22%20value%3D%22%22%20style%3D%22group%22%20vertex%3D%221%22%20connectable%3D%220%22%20parent%3D%221%22%3E%3CmxGeometry%20x%3D%22320%22%20y%3D%22160%22%20width%3D%22170%22%20height%3D%22370%22%20as%3D%22geometry%22%2F%3E%3C%2FmxCell%3E%3CmxCell%20id%3D%223%22%20value%3D%22%22%20style%3D%22rounded%3D0%3BwhiteSpace%3Dwrap%3Bhtml%3D1%3BfillColor%3Dnone%3B%22%20vertex%3D%221%22%20parent%3D%222%22%3E%3CmxGeometry%20y%3D%2240%22%20width%3D%22170%22%20height%3D%22330%22%20as%3D%22geometry%22%2F%3E%3C%2FmxCell%3E%3CmxCell%20id%3D%224%22%20value%3D%22%26lt%3Bb%26gt%3BBronze%20Layer%26lt%3B%2Fb%26gt%3B%22%20style%3D%22rounded%3D1%3BwhiteSpace%3Dwrap%3Bhtml%3D1%3BfillColor%3D%23ffe6cc%3BstrokeColor%3D%23d79b00%3B%22%20vertex%3D%221%22%20parent%3D%222%22%3E%3CmxGeometry%20width%3D%22170%22%20height%3D%2230%22%20as%3D%22geometry%22%2F%3E%3C%2FmxCell%3E%3C%2Froot%3E%3C%2FmxGraphModel%&lt;/span&gt;" style="rounded=1;whiteSpace=wrap;html=1;fillColor=#ffe6cc;strokeColor=#d79b00;" vertex="1" parent="ENB5yflXcwBVVpgjMPXa-10">
          <mxGeometry x="25" y="113" width="120" height="30" as="geometry" />
        </mxCell>
        <mxCell id="ENB5yflXcwBVVpgjMPXa-19" value="crm_prd_info" style="rounded=1;whiteSpace=wrap;html=1;fillColor=#ffe6cc;strokeColor=#d79b00;" vertex="1" parent="ENB5yflXcwBVVpgjMPXa-10">
          <mxGeometry x="25" y="160" width="120" height="30" as="geometry" />
        </mxCell>
        <mxCell id="ENB5yflXcwBVVpgjMPXa-21" value="erp_cust_az12" style="rounded=1;whiteSpace=wrap;html=1;fillColor=#ffe6cc;strokeColor=#d79b00;" vertex="1" parent="ENB5yflXcwBVVpgjMPXa-10">
          <mxGeometry x="25" y="220" width="120" height="30" as="geometry" />
        </mxCell>
        <mxCell id="ENB5yflXcwBVVpgjMPXa-22" value="erp_loc_a101" style="rounded=1;whiteSpace=wrap;html=1;fillColor=#ffe6cc;strokeColor=#d79b00;" vertex="1" parent="ENB5yflXcwBVVpgjMPXa-10">
          <mxGeometry x="25" y="260" width="120" height="30" as="geometry" />
        </mxCell>
        <mxCell id="ENB5yflXcwBVVpgjMPXa-23" value="erp_px_cat_g1v2" style="rounded=1;whiteSpace=wrap;html=1;fillColor=#ffe6cc;strokeColor=#d79b00;" vertex="1" parent="ENB5yflXcwBVVpgjMPXa-10">
          <mxGeometry x="25" y="300" width="120" height="30" as="geometry" />
        </mxCell>
        <mxCell id="ENB5yflXcwBVVpgjMPXa-11" value="" style="group" vertex="1" connectable="0" parent="ENB5yflXcwBVVpgjMPXa-66">
          <mxGeometry x="450" width="170" height="370" as="geometry" />
        </mxCell>
        <mxCell id="ENB5yflXcwBVVpgjMPXa-12" value="" style="rounded=0;whiteSpace=wrap;html=1;fillColor=none;" vertex="1" parent="ENB5yflXcwBVVpgjMPXa-11">
          <mxGeometry y="40" width="170" height="330" as="geometry" />
        </mxCell>
        <mxCell id="ENB5yflXcwBVVpgjMPXa-13" value="&lt;b&gt;Silver Layer&lt;/b&gt;" style="rounded=1;whiteSpace=wrap;html=1;fillColor=#f5f5f5;strokeColor=#666666;fontColor=#333333;" vertex="1" parent="ENB5yflXcwBVVpgjMPXa-11">
          <mxGeometry width="170" height="30" as="geometry" />
        </mxCell>
        <mxCell id="ENB5yflXcwBVVpgjMPXa-35" value="crm_sales_details" style="rounded=1;whiteSpace=wrap;html=1;fillColor=#f5f5f5;strokeColor=#666666;fontColor=#333333;" vertex="1" parent="ENB5yflXcwBVVpgjMPXa-11">
          <mxGeometry x="25" y="60" width="120" height="30" as="geometry" />
        </mxCell>
        <mxCell id="ENB5yflXcwBVVpgjMPXa-36" value="crm_cust_info&lt;span style=&quot;color: rgba(0, 0, 0, 0); font-family: monospace; font-size: 0px; text-align: start; text-wrap-mode: nowrap;&quot;&gt;%3CmxGraphModel%3E%3Croot%3E%3CmxCell%20id%3D%220%22%2F%3E%3CmxCell%20id%3D%221%22%20parent%3D%220%22%2F%3E%3CmxCell%20id%3D%222%22%20value%3D%22%22%20style%3D%22group%22%20vertex%3D%221%22%20connectable%3D%220%22%20parent%3D%221%22%3E%3CmxGeometry%20x%3D%22320%22%20y%3D%22160%22%20width%3D%22170%22%20height%3D%22370%22%20as%3D%22geometry%22%2F%3E%3C%2FmxCell%3E%3CmxCell%20id%3D%223%22%20value%3D%22%22%20style%3D%22rounded%3D0%3BwhiteSpace%3Dwrap%3Bhtml%3D1%3BfillColor%3Dnone%3B%22%20vertex%3D%221%22%20parent%3D%222%22%3E%3CmxGeometry%20y%3D%2240%22%20width%3D%22170%22%20height%3D%22330%22%20as%3D%22geometry%22%2F%3E%3C%2FmxCell%3E%3CmxCell%20id%3D%224%22%20value%3D%22%26lt%3Bb%26gt%3BBronze%20Layer%26lt%3B%2Fb%26gt%3B%22%20style%3D%22rounded%3D1%3BwhiteSpace%3Dwrap%3Bhtml%3D1%3BfillColor%3D%23ffe6cc%3BstrokeColor%3D%23d79b00%3B%22%20vertex%3D%221%22%20parent%3D%222%22%3E%3CmxGeometry%20width%3D%22170%22%20height%3D%2230%22%20as%3D%22geometry%22%2F%3E%3C%2FmxCell%3E%3C%2Froot%3E%3C%2FmxGraphModel%&lt;/span&gt;" style="rounded=1;whiteSpace=wrap;html=1;fillColor=#f5f5f5;strokeColor=#666666;fontColor=#333333;" vertex="1" parent="ENB5yflXcwBVVpgjMPXa-11">
          <mxGeometry x="25" y="110" width="120" height="30" as="geometry" />
        </mxCell>
        <mxCell id="ENB5yflXcwBVVpgjMPXa-37" value="crm_prd_info" style="rounded=1;whiteSpace=wrap;html=1;fillColor=#f5f5f5;strokeColor=#666666;fontColor=#333333;" vertex="1" parent="ENB5yflXcwBVVpgjMPXa-11">
          <mxGeometry x="25" y="160" width="120" height="30" as="geometry" />
        </mxCell>
        <mxCell id="ENB5yflXcwBVVpgjMPXa-38" value="erp_cust_az12" style="rounded=1;whiteSpace=wrap;html=1;fillColor=#f5f5f5;strokeColor=#666666;fontColor=#333333;" vertex="1" parent="ENB5yflXcwBVVpgjMPXa-11">
          <mxGeometry x="25" y="220" width="120" height="30" as="geometry" />
        </mxCell>
        <mxCell id="ENB5yflXcwBVVpgjMPXa-39" value="erp_loc_a101" style="rounded=1;whiteSpace=wrap;html=1;fillColor=#f5f5f5;strokeColor=#666666;fontColor=#333333;" vertex="1" parent="ENB5yflXcwBVVpgjMPXa-11">
          <mxGeometry x="25" y="260" width="120" height="30" as="geometry" />
        </mxCell>
        <mxCell id="ENB5yflXcwBVVpgjMPXa-40" value="erp_px_cat_g1v2" style="rounded=1;whiteSpace=wrap;html=1;fillColor=#f5f5f5;strokeColor=#666666;fontColor=#333333;" vertex="1" parent="ENB5yflXcwBVVpgjMPXa-11">
          <mxGeometry x="25" y="300" width="120" height="30" as="geometry" />
        </mxCell>
        <mxCell id="ENB5yflXcwBVVpgjMPXa-62" value="" style="endArrow=classic;html=1;rounded=0;entryX=0;entryY=0.5;entryDx=0;entryDy=0;" edge="1" parent="ENB5yflXcwBVVpgjMPXa-11" target="ENB5yflXcwBVVpgjMPXa-58">
          <mxGeometry width="50" height="50" relative="1" as="geometry">
            <mxPoint x="145" y="180" as="sourcePoint" />
            <mxPoint x="195" y="130" as="targetPoint" />
          </mxGeometry>
        </mxCell>
        <mxCell id="ENB5yflXcwBVVpgjMPXa-63" value="" style="endArrow=classic;html=1;rounded=0;entryX=0;entryY=0.5;entryDx=0;entryDy=0;" edge="1" parent="ENB5yflXcwBVVpgjMPXa-11" target="ENB5yflXcwBVVpgjMPXa-57">
          <mxGeometry width="50" height="50" relative="1" as="geometry">
            <mxPoint x="145" y="240" as="sourcePoint" />
            <mxPoint x="195" y="190" as="targetPoint" />
          </mxGeometry>
        </mxCell>
        <mxCell id="ENB5yflXcwBVVpgjMPXa-64" value="" style="endArrow=classic;html=1;rounded=0;entryX=0;entryY=0.75;entryDx=0;entryDy=0;" edge="1" parent="ENB5yflXcwBVVpgjMPXa-11" target="ENB5yflXcwBVVpgjMPXa-57">
          <mxGeometry width="50" height="50" relative="1" as="geometry">
            <mxPoint x="145" y="270" as="sourcePoint" />
            <mxPoint x="195" y="220" as="targetPoint" />
          </mxGeometry>
        </mxCell>
        <mxCell id="ENB5yflXcwBVVpgjMPXa-65" value="" style="endArrow=classic;html=1;rounded=0;entryX=0;entryY=0.5;entryDx=0;entryDy=0;" edge="1" parent="ENB5yflXcwBVVpgjMPXa-11" target="ENB5yflXcwBVVpgjMPXa-58">
          <mxGeometry width="50" height="50" relative="1" as="geometry">
            <mxPoint x="145" y="320" as="sourcePoint" />
            <mxPoint x="195" y="270" as="targetPoint" />
          </mxGeometry>
        </mxCell>
        <mxCell id="ENB5yflXcwBVVpgjMPXa-14" value="" style="group" vertex="1" connectable="0" parent="ENB5yflXcwBVVpgjMPXa-66">
          <mxGeometry x="670" width="170" height="370" as="geometry" />
        </mxCell>
        <mxCell id="ENB5yflXcwBVVpgjMPXa-15" value="" style="rounded=0;whiteSpace=wrap;html=1;fillColor=none;" vertex="1" parent="ENB5yflXcwBVVpgjMPXa-14">
          <mxGeometry y="40" width="170" height="330" as="geometry" />
        </mxCell>
        <mxCell id="ENB5yflXcwBVVpgjMPXa-16" value="&lt;b&gt;Gold Layer&lt;/b&gt;" style="rounded=1;whiteSpace=wrap;html=1;fillColor=#d5e8d4;strokeColor=#82b366;" vertex="1" parent="ENB5yflXcwBVVpgjMPXa-14">
          <mxGeometry width="170" height="30" as="geometry" />
        </mxCell>
        <mxCell id="ENB5yflXcwBVVpgjMPXa-56" value="fact_sales" style="rounded=1;whiteSpace=wrap;html=1;fillColor=#ffe6cc;strokeColor=#d79b00;" vertex="1" parent="ENB5yflXcwBVVpgjMPXa-14">
          <mxGeometry x="25" y="60" width="120" height="30" as="geometry" />
        </mxCell>
        <mxCell id="ENB5yflXcwBVVpgjMPXa-57" value="dim_customer" style="rounded=1;whiteSpace=wrap;html=1;fillColor=#ffe6cc;strokeColor=#d79b00;" vertex="1" parent="ENB5yflXcwBVVpgjMPXa-14">
          <mxGeometry x="25" y="170" width="120" height="30" as="geometry" />
        </mxCell>
        <mxCell id="ENB5yflXcwBVVpgjMPXa-58" value="dim_product" style="rounded=1;whiteSpace=wrap;html=1;fillColor=#ffe6cc;strokeColor=#d79b00;" vertex="1" parent="ENB5yflXcwBVVpgjMPXa-14">
          <mxGeometry x="25" y="250" width="120" height="30" as="geometry" />
        </mxCell>
        <mxCell id="ENB5yflXcwBVVpgjMPXa-25" value="" style="endArrow=classic;html=1;rounded=0;exitX=0.975;exitY=0.52;exitDx=0;exitDy=0;exitPerimeter=0;" edge="1" parent="ENB5yflXcwBVVpgjMPXa-66" source="ENB5yflXcwBVVpgjMPXa-4" target="ENB5yflXcwBVVpgjMPXa-18">
          <mxGeometry width="50" height="50" relative="1" as="geometry">
            <mxPoint x="120" y="128" as="sourcePoint" />
            <mxPoint x="320" y="160" as="targetPoint" />
          </mxGeometry>
        </mxCell>
        <mxCell id="ENB5yflXcwBVVpgjMPXa-30" value="" style="endArrow=classic;html=1;rounded=0;exitX=0.979;exitY=0.511;exitDx=0;exitDy=0;exitPerimeter=0;entryX=0;entryY=0.5;entryDx=0;entryDy=0;" edge="1" parent="ENB5yflXcwBVVpgjMPXa-66" source="ENB5yflXcwBVVpgjMPXa-4" target="ENB5yflXcwBVVpgjMPXa-17">
          <mxGeometry width="50" height="50" relative="1" as="geometry">
            <mxPoint x="230" y="140" as="sourcePoint" />
            <mxPoint x="280" y="90" as="targetPoint" />
          </mxGeometry>
        </mxCell>
        <mxCell id="ENB5yflXcwBVVpgjMPXa-31" value="" style="endArrow=classic;html=1;rounded=0;exitX=0.986;exitY=0.514;exitDx=0;exitDy=0;exitPerimeter=0;entryX=0;entryY=0.5;entryDx=0;entryDy=0;" edge="1" parent="ENB5yflXcwBVVpgjMPXa-66" source="ENB5yflXcwBVVpgjMPXa-4" target="ENB5yflXcwBVVpgjMPXa-19">
          <mxGeometry width="50" height="50" relative="1" as="geometry">
            <mxPoint x="110" y="130" as="sourcePoint" />
            <mxPoint x="290" y="180" as="targetPoint" />
          </mxGeometry>
        </mxCell>
        <mxCell id="ENB5yflXcwBVVpgjMPXa-32" value="" style="endArrow=classic;html=1;rounded=0;exitX=0.992;exitY=0.548;exitDx=0;exitDy=0;exitPerimeter=0;entryX=0;entryY=0.5;entryDx=0;entryDy=0;" edge="1" parent="ENB5yflXcwBVVpgjMPXa-66" source="ENB5yflXcwBVVpgjMPXa-5" target="ENB5yflXcwBVVpgjMPXa-21">
          <mxGeometry width="50" height="50" relative="1" as="geometry">
            <mxPoint x="210" y="260" as="sourcePoint" />
            <mxPoint x="260" y="210" as="targetPoint" />
          </mxGeometry>
        </mxCell>
        <mxCell id="ENB5yflXcwBVVpgjMPXa-33" value="" style="endArrow=classic;html=1;rounded=0;entryX=0;entryY=0.5;entryDx=0;entryDy=0;exitX=0.992;exitY=0.546;exitDx=0;exitDy=0;exitPerimeter=0;" edge="1" parent="ENB5yflXcwBVVpgjMPXa-66" source="ENB5yflXcwBVVpgjMPXa-5" target="ENB5yflXcwBVVpgjMPXa-22">
          <mxGeometry width="50" height="50" relative="1" as="geometry">
            <mxPoint x="120" y="270" as="sourcePoint" />
            <mxPoint x="170" y="220" as="targetPoint" />
          </mxGeometry>
        </mxCell>
        <mxCell id="ENB5yflXcwBVVpgjMPXa-34" value="" style="endArrow=classic;html=1;rounded=0;entryX=0;entryY=0.5;entryDx=0;entryDy=0;exitX=1.002;exitY=0.556;exitDx=0;exitDy=0;exitPerimeter=0;" edge="1" parent="ENB5yflXcwBVVpgjMPXa-66" source="ENB5yflXcwBVVpgjMPXa-5" target="ENB5yflXcwBVVpgjMPXa-23">
          <mxGeometry width="50" height="50" relative="1" as="geometry">
            <mxPoint x="120" y="260" as="sourcePoint" />
            <mxPoint x="270" y="220" as="targetPoint" />
          </mxGeometry>
        </mxCell>
        <mxCell id="ENB5yflXcwBVVpgjMPXa-41" value="" style="endArrow=classic;html=1;rounded=0;exitX=1;exitY=0.5;exitDx=0;exitDy=0;entryX=0;entryY=0.5;entryDx=0;entryDy=0;" edge="1" parent="ENB5yflXcwBVVpgjMPXa-66" source="ENB5yflXcwBVVpgjMPXa-17" target="ENB5yflXcwBVVpgjMPXa-35">
          <mxGeometry width="50" height="50" relative="1" as="geometry">
            <mxPoint x="500" y="180" as="sourcePoint" />
            <mxPoint x="550" y="130" as="targetPoint" />
          </mxGeometry>
        </mxCell>
        <mxCell id="ENB5yflXcwBVVpgjMPXa-42" value="" style="endArrow=classic;html=1;rounded=0;exitX=1;exitY=0.5;exitDx=0;exitDy=0;entryX=0.001;entryY=0.626;entryDx=0;entryDy=0;entryPerimeter=0;" edge="1" parent="ENB5yflXcwBVVpgjMPXa-66" source="ENB5yflXcwBVVpgjMPXa-18" target="ENB5yflXcwBVVpgjMPXa-36">
          <mxGeometry width="50" height="50" relative="1" as="geometry">
            <mxPoint x="470" y="160" as="sourcePoint" />
            <mxPoint x="520" y="110" as="targetPoint" />
          </mxGeometry>
        </mxCell>
        <mxCell id="ENB5yflXcwBVVpgjMPXa-43" value="" style="endArrow=classic;html=1;rounded=0;exitX=1;exitY=0.5;exitDx=0;exitDy=0;entryX=0;entryY=0.5;entryDx=0;entryDy=0;" edge="1" parent="ENB5yflXcwBVVpgjMPXa-66" source="ENB5yflXcwBVVpgjMPXa-19" target="ENB5yflXcwBVVpgjMPXa-37">
          <mxGeometry width="50" height="50" relative="1" as="geometry">
            <mxPoint x="460" y="160" as="sourcePoint" />
            <mxPoint x="510" y="110" as="targetPoint" />
          </mxGeometry>
        </mxCell>
        <mxCell id="ENB5yflXcwBVVpgjMPXa-44" value="" style="endArrow=classic;html=1;rounded=0;exitX=1;exitY=0.5;exitDx=0;exitDy=0;entryX=0;entryY=0.5;entryDx=0;entryDy=0;" edge="1" parent="ENB5yflXcwBVVpgjMPXa-66" source="ENB5yflXcwBVVpgjMPXa-21" target="ENB5yflXcwBVVpgjMPXa-38">
          <mxGeometry width="50" height="50" relative="1" as="geometry">
            <mxPoint x="460" y="310" as="sourcePoint" />
            <mxPoint x="510" y="260" as="targetPoint" />
          </mxGeometry>
        </mxCell>
        <mxCell id="ENB5yflXcwBVVpgjMPXa-45" value="" style="endArrow=classic;html=1;rounded=0;exitX=1;exitY=0.5;exitDx=0;exitDy=0;" edge="1" parent="ENB5yflXcwBVVpgjMPXa-66" source="ENB5yflXcwBVVpgjMPXa-22" target="ENB5yflXcwBVVpgjMPXa-39">
          <mxGeometry width="50" height="50" relative="1" as="geometry">
            <mxPoint x="460" y="310" as="sourcePoint" />
            <mxPoint x="510" y="260" as="targetPoint" />
          </mxGeometry>
        </mxCell>
        <mxCell id="ENB5yflXcwBVVpgjMPXa-46" value="" style="endArrow=classic;html=1;rounded=0;exitX=1;exitY=0.5;exitDx=0;exitDy=0;entryX=0;entryY=0.5;entryDx=0;entryDy=0;" edge="1" parent="ENB5yflXcwBVVpgjMPXa-66" source="ENB5yflXcwBVVpgjMPXa-23" target="ENB5yflXcwBVVpgjMPXa-40">
          <mxGeometry width="50" height="50" relative="1" as="geometry">
            <mxPoint x="460" y="310" as="sourcePoint" />
            <mxPoint x="510" y="260" as="targetPoint" />
          </mxGeometry>
        </mxCell>
        <mxCell id="ENB5yflXcwBVVpgjMPXa-59" value="" style="endArrow=classic;html=1;rounded=0;exitX=1;exitY=0.5;exitDx=0;exitDy=0;entryX=0;entryY=0.5;entryDx=0;entryDy=0;" edge="1" parent="ENB5yflXcwBVVpgjMPXa-66" source="ENB5yflXcwBVVpgjMPXa-35" target="ENB5yflXcwBVVpgjMPXa-56">
          <mxGeometry width="50" height="50" relative="1" as="geometry">
            <mxPoint x="645" y="120" as="sourcePoint" />
            <mxPoint x="695" y="70" as="targetPoint" />
          </mxGeometry>
        </mxCell>
        <mxCell id="ENB5yflXcwBVVpgjMPXa-61" value="" style="endArrow=classic;html=1;rounded=0;entryX=0;entryY=0.5;entryDx=0;entryDy=0;exitX=1;exitY=0.5;exitDx=0;exitDy=0;" edge="1" parent="ENB5yflXcwBVVpgjMPXa-66" source="ENB5yflXcwBVVpgjMPXa-36" target="ENB5yflXcwBVVpgjMPXa-57">
          <mxGeometry width="50" height="50" relative="1" as="geometry">
            <mxPoint x="595" y="130" as="sourcePoint" />
            <mxPoint x="645" y="80" as="targetPoint" />
          </mxGeometry>
        </mxCell>
      </root>
    </mxGraphModel>
  </diagram>
</mxfile>
